# This file uses centimeters as units for non-parametric coordinates.

mtllib Floor_Dark_2.mtl
g default
v -1.250000 0.000000 -1.250000
v 1.250000 0.000000 -1.250000
v -1.250000 2.500000 -1.250000
v 1.250000 2.500000 -1.250000
v -1.250000 0.000000 1.250000
v 1.250000 0.000000 1.250000
v -1.250000 2.500000 1.250000
v 1.250000 2.500000 1.250000
vt 0.912109 0.500000
vt 0.912109 0.500000
vt 0.912109 0.500000
vt 0.912109 0.500000
vt 0.912109 0.500000
vt 0.912109 0.500000
vt 0.912109 0.500000
vt 0.912109 0.500000
vt 0.912109 0.500000
vt 0.912109 0.500000
vt 0.912109 0.500000
vt 0.912109 0.500000
vt 0.912109 0.500000
vt 0.912109 0.500000
vt 0.912109 0.500000
vt 0.912109 0.500000
vt 0.912109 0.500000
vt 0.912109 0.500000
vt 0.912109 0.500000
vt 0.912109 0.500000
vt 0.912109 0.500000
vt 0.912109 0.500000
vt 0.912109 0.500000
vt 0.912109 0.500000
vt 0.912109 0.500000
vt 0.912109 0.500000
vt 0.912109 0.500000
vt 0.912109 0.500000
vt 0.912109 0.500000
vt 0.912109 0.500000
vt 0.912109 0.500000
vt 0.912109 0.500000
vt 0.912109 0.500000
vt 0.912109 0.500000
vt 0.912109 0.500000
vn 0.000000 0.000000 -1.000000
vn 0.000000 0.000000 -1.000000
vn 0.000000 0.000000 -1.000000
vn 0.000000 0.000000 -1.000000
vn 0.000000 0.000000 -1.000000
vn 0.000000 0.000000 -1.000000
vn 0.000000 0.000000 1.000000
vn 0.000000 0.000000 1.000000
vn 0.000000 0.000000 1.000000
vn 0.000000 0.000000 1.000000
vn 0.000000 0.000000 1.000000
vn 0.000000 0.000000 1.000000
vn -1.000000 0.000000 0.000000
vn -1.000000 0.000000 0.000000
vn -1.000000 0.000000 0.000000
vn -1.000000 0.000000 0.000000
vn -1.000000 0.000000 0.000000
vn -1.000000 0.000000 0.000000
vn 1.000000 0.000000 0.000000
vn 1.000000 0.000000 0.000000
vn 1.000000 0.000000 0.000000
vn 1.000000 0.000000 0.000000
vn 1.000000 0.000000 0.000000
vn 1.000000 0.000000 0.000000
vn 0.000000 -1.000000 0.000000
vn 0.000000 -1.000000 0.000000
vn 0.000000 -1.000000 0.000000
vn 0.000000 -1.000000 0.000000
vn 0.000000 -1.000000 0.000000
vn 0.000000 -1.000000 0.000000
vn 0.000000 1.000000 0.000000
vn 0.000000 1.000000 0.000000
vn 0.000000 1.000000 0.000000
vn 0.000000 1.000000 0.000000
vn 0.000000 1.000000 0.000000
vn 0.000000 1.000000 0.000000
s off
g Floor_Dark_2
usemtl Wall_Dark_0_Floor_Dark:palette
f 3/1/1 2/2/2 1/3/3
f 4/4/4 2/5/5 3/1/6
f 5/6/7 6/7/8 7/8/9
f 7/9/10 6/10/11 8/11/12
f 5/12/13 3/13/14 1/14/15
f 7/15/16 3/16/17 5/17/18
f 2/18/19 4/19/20 6/20/21
f 6/21/22 4/22/23 8/23/24
f 2/24/25 5/25/26 1/26/27
f 6/27/28 5/28/29 2/29/30
f 3/30/31 7/31/32 4/32/33
f 4/33/34 7/34/35 8/35/36
